# xmcd CD database file
#
# Track frame offsets:
#	182
#	13672
#	27655
#	41187
#	57227
#	68292
#	84807
#	101362
#	119152
#	137457
#
# Disc length: 2022 seconds
#
# Revision: 7
# Processed by: cddbd v1.5.2PL0 Copyright (c) Steve Scherf et al.
# Submitted via: CDex 1.51
#
DISCID=7d07e40a
DTITLE=Randy Travis - Greatest #1 Hits
DYEAR=1998
DGENRE=Country
TTITLE0=1982
TTITLE1=On The Other Hand
TTITLE2=Diggin' Up Bones
TTITLE3=Forever And Ever, Amen
TTITLE4=Too Gone Too Long
TTITLE5=I Told You So
TTITLE6=Deeper Than The Holler
TTITLE7=It's Just A Matter Of Time
TTITLE8=Hard Rock Bottom Of Your Heart
TTITLE9=Look Heart, No Hands
EXTD=YEAR: 1998
EXTT0=
EXTT1=
EXTT2=
EXTT3=
EXTT4=
EXTT5=
EXTT6=
EXTT7=
EXTT8=
EXTT9=
PLAYORDER=
